<svg xmlns="https://www.w3.org/2000/svg" width="45" height="45" viewBox="0 0 45 45" fill="none">
    <style>
        rect{
            fill:#2c2c2c;
        }
        path{
            fill:#f8f8f8;
        }
        @media (prefers-color-scheme:dark){
            rect{
                fill:#f8f8f8;
            }
            path{
                fill:#2c2c2c;
            } 
        }
    </style>
   <rect width="45" height="45" fill="#2C2C2C" />
   <path d="M23.1557 5.9C31.6357 5.9 35.8757 9.132 35.8757 15.596C35.8757 18.444 34.8677 20.78 32.8517 22.604C30.8677 24.428 28.4997 25.34 25.7477 25.34C22.9957 25.34 20.6597 24.892 18.7397 23.996V28.652C18.7397 32.076 18.8357 34.412 19.0277 35.66C19.2517 36.908 19.5557 37.692 19.9397 38.012C20.6757 38.62 21.8437 38.924 23.4437 38.924L23.5397 39.5H10.5797L10.6757 38.924C12.2757 38.924 13.4437 38.62 14.1797 38.012C14.9797 37.34 15.3797 34.22 15.3797 28.652V16.748C15.3797 13.324 15.2677 10.988 15.0437 9.74C14.8517 8.492 14.5637 7.708 14.1797 7.388C13.4437 6.78 12.2757 6.476 10.6757 6.476L10.5797 5.9H23.1557ZM18.7397 7.004V22.796C20.4037 23.692 22.3557 24.14 24.5957 24.14C26.8677 24.14 28.6917 23.436 30.0677 22.028C31.4437 20.588 32.1317 18.444 32.1317 15.596C32.1317 12.044 30.9797 9.676 28.6757 8.492C26.7877 7.5 24.5157 7.004 21.8597 7.004H18.7397Z"/>
</svg>